inDegrees=yes
name=ik_S46_A04_T01
DataType=double
version=3
OpenSimVersion=4.3-2021-08-27-4bc7ad9
endheader
time	pelvis_tilt	pelvis_list	pelvis_rotation	pelvis_tx	pelvis_ty	pelvis_tz	hip_flexion_r	hip_adduction_r	hip_rotation_r	knee_angle_r	knee_angle_r_beta	ankle_angle_r	subtalar_angle_r	mtp_angle_r	hip_flexion_l	hip_adduction_l	hip_rotation_l	knee_angle_l	knee_angle_l_beta	ankle_angle_l	subtalar_angle_l	mtp_angle_l	lumbar_extension	lumbar_bending	lumbar_rotation	arm_flex_r	arm_add_r	arm_rot_r	elbow_flex_r	pro_sup_r	wrist_flex_r	wrist_dev_r	arm_flex_l	arm_add_l	arm_rot_l	elbow_flex_l	pro_sup_l	wrist_flex_l	wrist_dev_l
9.77999999999988	-14.70457389766501	-8.943741735040083	31.00285440840839	0	0.9399999999999999	0	52.87729358620648	-20.3635365932852	-11.04820948364204	45.91536893892549	0.801374365252185	0	0	0	56.36934413073076	-1.168425704374987	-12.07235419419688	47.82966128142716	0.8347850694745541	0	0	0	0	0	0	29.50968189460124	-29.50968189460124	4.198490037087798	74.48506753907063	85.80151019901629	0	0	29.50968189460124	-29.50968189460124	4.198490037087798	74.48506753907063	85.80151019886588	0	0
9.79999999999988	-14.68595087436307	-8.841320404826801	30.99320548015458	0	0.9399999999999999	0	55.59374758983123	-21.35001431643832	-9.778574780799609	48.81500440302413	0.8519825512083	0	0	0	57.76465466830533	-1.118319960263363	-11.84615467644267	50.10707077613386	0.8745333635733664	0	0	0	0	0	0	29.62520634463143	-29.62520634463144	4.208585915352149	74.61827608549078	85.79141432126879	0	0	29.62520634463143	-29.62520634463144	4.208585915352149	74.61827608549078	85.79141432112026	0	0
9.819999999999879	-14.47923097128101	-8.632820426881421	30.98865065076476	0	0.9399999999999999	0	55.33598517065531	-21.37192682617319	-9.683379652764639	48.90737572171691	0.853594734853898	0	0	0	58.9288336659507	-1.141671046562199	-11.70849056139657	51.52871152651606	0.8993456754480587	0	0	0	0	0	0	29.62844120038312	-29.62844120038313	4.208916267209343	74.62266094682751	85.79108396942885	0	0	29.62844120038312	-29.62844120038313	4.208916267209343	74.62266094682751	85.79108396928044	0	0
9.839999999999879	-14.25359074221947	-8.37102110169705	30.9516180639296	0	0.9399999999999999	0	58.01553472089672	-22.27605705484211	-8.193880383303707	51.93319416797443	0.906405229308671	0	0	0	60.03958518777614	-1.165922673469819	-11.7788124323598	53.54401184918589	0.9345193014951513	0	0	0	0	0	0	29.72367547350033	-29.72367547350034	4.217211215215761	74.73209097727224	85.7827890218468	0	0	29.72367547350033	-29.72367547350034	4.217211215215761	74.73209097727224	85.78278902169995	0	0
9.859999999999879	-13.9873089348745	-8.114326926206095	30.92105687351152	0	0.9399999999999999	0	59.14923632946609	-22.66107099866872	-7.330583210929699	53.32449301874515	0.9306879751338333	0	0	0	61.12120909084096	-1.308769922830237	-11.77441094301594	55.21845025016539	0.9637437647140725	0	0	0	0	0	0	29.78258444592654	-29.78258444592655	4.222338802610655	74.79973319846187	85.77766143471413	0	0	29.78258444592654	-29.78258444592655	4.222338802610655	74.79973319846187	85.7776614345683	0	0
9.879999999999878	-13.7820260981196	-7.859433458660851	31.00615356253094	0	0.9399999999999999	0	60.31221678538737	-23.12627518813514	-6.468476784209353	54.74650057964072	0.9555066890597146	0	0	0	62.2388377085346	-1.363942306149486	-11.6086188013307	56.88233246295398	0.9927839876926023	0	0	0	0	0	0	29.82775761412032	-29.82775761412033	4.226279700986395	74.8517246803512	85.77372053654005	0	0	29.82775761412032	-29.82775761412033	4.226279700986395	74.8517246803512	85.77372053639493	0	0
9.899999999999878	-13.69067215236607	-7.711149014513709	31.10136458903364	0	0.9399999999999999	0	61.65833917019698	-23.5797667392962	-5.623687125237889	56.15719659276816	0.9801279792335456	0	0	0	63.53339169470966	-1.361979667883567	-11.30181752337142	58.55426872919544	1.021964780422016	0	0	0	0	0	0	29.85592937032802	-29.85592937032803	4.228757988825915	74.88442986656651	85.77124224882748	0	0	29.85592937032802	-29.85592937032803	4.228757988825915	74.88442986656651	85.77124224868285	0	0
9.919999999999877	-13.16552756119748	-7.288042896255155	31.40225807548747	0	0.9399999999999999	0	62.46466786607472	-24.2004192697485	-4.760378516138892	57.51098262970174	1.003756002945562	0	0	0	64.28153111672772	-1.158753064650358	-10.99079359441912	60.12082216831686	1.049306295843126	0	0	0	0	0	0	29.88962528573206	-29.88962528573207	4.231695114866546	74.9231766264249	85.76830512293709	0	0	29.88962528573206	-29.88962528573207	4.231695114866546	74.9231766264249	85.76830512279301	0	0
9.939999999999877	-12.94430023119415	-7.148356255150464	31.46032007118481	0	0.9399999999999999	0	63.67186317052646	-24.58641796132588	-3.86323131149429	58.8067474901079	1.026371366091294	0	0	0	65.48012876100739	-1.199319363107373	-10.79563937386522	61.6645546922588	1.076249511156035	0	0	0	0	0	0	29.9000657758659	-29.9000657758659	4.232644039258589	74.93571339924807	85.76735619859389	0	0	29.9000657758659	-29.9000657758659	4.232644039258589	74.93571339924807	85.76735619845	0	0
9.959999999999877	-12.1566222450642	-6.692232906874318	31.70573088850738	0	0.9399999999999999	0	64.16767449445214	-25.03460135599019	-3.042203662910758	60.06401436271251	1.048314812594497	0	0	0	65.96381683664345	-1.174063638022609	-10.47844839139047	63.11967792433527	1.101646202578031	0	0	0	0	0	0	29.9350720280083	-29.93507202800831	4.235677815371107	74.97572619875828	85.7643224226364	0	0	29.9350720280083	-29.93507202800831	4.235677815371107	74.97572619875828	85.76432242249311	0	0
9.979999999999876	-11.85569901225203	-6.548585423796352	31.81525103852326	0	0.9399999999999999	0	65.23498491711334	-25.36357690946395	-2.236659481675726	61.30465657227619	1.069968103990601	0	0	0	67.01179104420311	-1.257362865179799	-10.19384865213433	64.56515637637405	1.126874560832738	0	0	0	0	0	0	29.93255063781465	-29.93255063781466	4.235540408041933	74.97395344274996	85.76445982995918	0	0	29.93255063781465	-29.93255063781466	4.235540408041933	74.97395344274996	85.76445982981588	0	0
9.999999999999876	-10.95466523376427	-6.049339014727662	32.12941401706163	0	0.9399999999999999	0	65.52868787779556	-25.82388023155679	-1.554328312419655	62.4463877428047	1.089895072088972	0	0	0	67.32686901327547	-1.183115723566551	-9.841730028687264	65.92796869462265	1.150660122872913	0	0	0	0	0	0	29.96299485510577	-29.96299485510578	4.238200541954247	75.00904885211089	85.76179969618298	0	0	29.96299485510577	-29.96299485510578	4.238200541954247	75.00904885211089	85.7617996960402	0	0
